# xmcd
#
# Track frame offsets: 
#        150
#        15435
#        30115
#        44180
#        58192
#        70942
#        83817
#        96837
#        111087
#        122990
#        137182
#        151437
#        166275
#        179760
#        191365
#        205497
#        219232
#        233825
#        247570
#        261737
#        274375
#        287952
#        300577
#        314092
#
# Disc length: 4377 seconds
#
# Revision: 1
# Processed by: cddbd v1.5.2PL0 Copyright (c) Steve Scherf et al.
# Submitted via: ExactAudioCopy v1.0b3
#
DISCID=6a111718
DTITLE=Arthur "Big Boy" Crudup - Complete Recorded Works 1941-1945 Vol
DTITLE=1
DYEAR=1993
DGENRE=Blues
TTITLE0=Black Pony Blues
TTITLE1=Death Valley Blues 
TTITLE2=Kind Lover Blues
TTITLE3=If I Get Lucky
TTITLE4=Standing At My Window
TTITLE5=Gonna Follow My Baby
TTITLE6=Give Me A 32-20
TTITLE7=My Mama Don't Allow Me
TTITLE8=Mean Old 'Frisco Blues
TTITLE9=Raised To My Hand
TTITLE10=Cool Disposition
TTITLE11=Who's Been Foolin' You
TTITLE12=Rock Me Mama
TTITLE13=Keep Your Arms Around Me Mama
TTITLE14=Dirt Road Blues
TTITLE15=I'm In The Mood
TTITLE16=That's Your Red Wagon
TTITLE17=She's Gone
TTITLE18=Ethel Mae
TTITLE19=So Glad You're Mine
TTITLE20=Boy Friend Blues
TTITLE21=No More Lovers
TTITLE22=You Got To Reap
TTITLE23=Chicago Blues
EXTD=
EXTT0=
EXTT1=
EXTT2=
EXTT3=
EXTT4=
EXTT5=
EXTT6=
EXTT7=
EXTT8=
EXTT9=
EXTT10=
EXTT11=
EXTT12=
EXTT13=
EXTT14=
EXTT15=
EXTT16=
EXTT17=
EXTT18=
EXTT19=
EXTT20=
EXTT21=
EXTT22=
EXTT23=
PLAYORDER=
